<svg width="20" height="21" viewBox="0 0 20 21" fill="none" xmlns="http://www.w3.org/2000/svg">
<path fill-rule="evenodd" clip-rule="evenodd" d="M14.0137 20H5.6659C2.59954 20 0.247137 18.8924 0.915329 14.4348L1.69336 8.39359C2.10526 6.16934 3.52402 5.31808 4.76888 5.31808H14.9474C16.2105 5.31808 17.5469 6.23341 18.0229 8.39359L18.8009 14.4348C19.3684 18.389 17.0801 20 14.0137 20Z" stroke="#8F95B2" stroke-width="1.5" stroke-linecap="round" stroke-linejoin="round"/>
<path d="M14.151 5.0984C14.151 2.71232 12.2167 0.778031 9.83066 0.778031V0.778031C8.68166 0.773162 7.57805 1.22619 6.76386 2.03695C5.94967 2.8477 5.49198 3.94939 5.49199 5.0984H5.49199" stroke="#8F95B2" stroke-width="1.5" stroke-linecap="round" stroke-linejoin="round"/>
<path d="M12.7963 9.60183H12.7506" stroke="#8F95B2" stroke-width="1.5" stroke-linecap="round" stroke-linejoin="round"/>
<path d="M6.96567 9.60183H6.91991" stroke="#8F95B2" stroke-width="1.5" stroke-linecap="round" stroke-linejoin="round"/>
</svg>
